<svg  xmlns="http://www.w3.org/2000/svg" xmlns:xlink="http://www.w3.org/1999/xlink" version="1.1" xml:space="preserve">

  <symbol id="CREDITCARD" viewBox="0 0 512 512">
	  <path d="M480,96H32c-17.688,0-32,14.313-32,32v64h512v-64C512,110.313,497.688,96,480,96z"/>
	  <path d="M0,256v128c0,17.688,14.313,32,32,32h448c17.688,0,32-14.313,32-32V256H0z M160,352H64v-64h96V352z M320,352h-32v-32h32   V352z M384,352h-32v-32h32V352z M448,352h-32v-32h32V352z"/>
  </symbol>

  <symbol id="IDCARD" viewBox="0 0 576 512">
    <path d="M528 32H48C21.5 32 0 53.5 0 80v16h576V80c0-26.5-21.5-48-48-48zM0 432c0 26.5 21.5 48 48 48h480c26.5 0 48-21.5 48-48V128H0v304zm352-232c0-4.4 3.6-8 8-8h144c4.4 0 8 3.6 8 8v16c0 4.4-3.6 8-8 8H360c-4.4 0-8-3.6-8-8v-16zm0 64c0-4.4 3.6-8 8-8h144c4.4 0 8 3.6 8 8v16c0 4.4-3.6 8-8 8H360c-4.4 0-8-3.6-8-8v-16zm0 64c0-4.4 3.6-8 8-8h144c4.4 0 8 3.6 8 8v16c0 4.4-3.6 8-8 8H360c-4.4 0-8-3.6-8-8v-16zM176 192c35.3 0 64 28.7 64 64s-28.7 64-64 64-64-28.7-64-64 28.7-64 64-64zM67.1 396.2C75.5 370.5 99.6 352 128 352h8.2c12.3 5.1 25.7 8 39.8 8s27.6-2.9 39.8-8h8.2c28.4 0 52.5 18.5 60.9 44.2 3.2 9.9-5.2 19.8-15.6 19.8H82.7c-10.4 0-18.8-10-15.6-19.8z"/>
  </symbol>


  <symbol id="LOCATION" viewBox="0 0 1000 1000">
    <path d="M500,10c-210.7,0-381.1,164.4-381.1,367.5C118.9,580.6,500,990,500,990s381.1-409.4,381.1-612.5C881.1,174.4,710.7,10,500,10z M500,500c-87.7,0-159-68.6-159-153c0-85,71.3-153,159-153c87.7,0,159,68,159,153C659,431.4,587.7,500,500,500z"/>
  </symbol>

  <svg id="PASSWORD" viewBox="0 0 512 512">
     <path d="M464.98,146.29H47.02C21.09,146.29,0,167.38,0,193.31v125.39c0,25.93,21.09,47.02,47.02,47.02h417.96
      c25.93,0,47.02-21.09,47.02-47.02V193.31C512,167.38,490.91,146.29,464.98,146.29z M169.8,268.55l-15.67,27.15l-21.73-12.55v25.1
      h-31.35v-25.1L79.3,295.7l-15.67-27.15L85.37,256l-21.74-12.55L79.3,216.3l21.74,12.55v-25.1h31.35v25.1l21.73-12.55l15.67,27.15
      L148.06,256L169.8,268.55z M309.08,268.55l-15.67,27.15l-21.73-12.55v25.1h-31.35v-25.1l-21.74,12.55l-15.67-27.15L224.65,256
      l-21.73-12.55l15.67-27.15l21.74,12.55v-25.1h31.35v25.1l21.73-12.55l15.67,27.15L287.35,256L309.08,268.55z M448.37,268.55
      L432.7,295.7l-21.73-12.55v25.1h-31.35v-25.1l-21.74,12.55l-15.67-27.15L363.94,256l-21.74-12.55l15.67-27.15l21.74,12.55v-25.1
      h31.35v25.1l21.73-12.55l15.67,27.15L426.63,256L448.37,268.55z"/>
  </svg>

  <symbol id="EMAIL" viewBox="0 0 512 512">
    <path d="M255,50.48C142.23,50.48,50.48,142.23,50.48,255S142.23,459.52,255,459.52c41.31,0,81.09-12.25,115.02-35.38
    	c11.66-7.98,14.67-23.88,6.72-35.54c-7.95-11.68-23.83-14.62-35.54-6.72c-25.41,17.36-55.22,26.51-86.2,26.51
    	c-84.59,0-153.39-68.79-153.39-153.39S170.41,101.61,255,101.61S408.39,170.41,408.39,255v12.78c0,14.11-11.45,25.56-25.56,25.56
    	c-15.31,0-40.16-1.7-43.61-46.83c-2.28-29.87-13.24-48.86-31.5-63.41c-14.83-10.92-32.95-17.59-52.71-17.59
    	c-49.34,0-89.48,40.14-89.48,89.48s40.14,89.48,89.48,89.48c26.72,0,50.49-12.02,66.88-30.65c14.01,18.48,36,30.65,60.95,30.65
    	c42.28,0,76.69-34.41,76.69-76.69V255C459.52,142.23,367.77,50.48,255,50.48z M255,293.35c-21.14,0-38.35-17.21-38.35-38.35
    	s17.21-38.35,38.35-38.35s38.35,17.21,38.35,38.35S276.14,293.35,255,293.35z"/>
  </symbol>

  <symbol id="HTTP" viewBox="0 0 1000 1000">
      <path d="M500,188.2C229.4,188.2,10,410.9,10,500c0,89.1,219.4,311.8,490,311.8c270.6,0,490-222.7,490-311.8S770.6,188.2,500,188.2z M500,722.7c-123,0-222.7-99.7-222.7-222.7c0-123,99.7-222.7,222.7-222.7c123,0,222.7,99.7,222.7,222.7C722.7,623,623,722.7,500,722.7z"/><path d="M500,345.3c-85.4,0-154.7,69.3-154.7,154.7c0,85.4,69.3,154.7,154.7,154.7c85.4,0,154.7-69.2,154.7-154.7C654.7,414.6,585.4,345.3,500,345.3z"/>
  </symbol>

  <symbol id="ACCOUNT" viewBox="0 0 544.202 544.202">
  	<path d="M301.936,386.579v-21.045c5.436-3.371,10.376-7.787,14.768-12.942   c12.077-14.183,19.691-34.375,19.691-56.912c0-14.583-3.222-28.182-8.724-39.847c-10.711-22.698-30.222-37.949-52.586-37.949   c-22.328,0-41.81,15.198-52.532,37.83c-5.537,11.689-8.777,25.329-8.777,39.966c0,14.595,3.252,28.17,8.771,39.817   c6.098,12.882,14.983,23.402,25.687,30.037v21.051c-9.29,1.808-17.877,4.612-25.723,8.079   c-17.399,7.685-30.747,18.981-37.144,32.352c-17.197-10.49-32.311-24.035-44.698-39.817c-22.286-28.408-35.64-64.126-35.64-102.94   c0-73.756,48.057-136.456,114.486-158.546c12.936-4.302,26.564-7.053,40.676-8.055c3.938-0.28,7.9-0.471,11.91-0.471   s7.972,0.191,11.91,0.471c14.112,1.002,27.74,3.753,40.676,8.055c63.195,21.015,109.725,78.787,114.11,147.859   c0.221,3.538,0.376,7.095,0.376,10.687c0,24.345-5.305,47.455-14.708,68.327c-4.809,10.669-10.657,20.777-17.501,30.121   c-11.952,16.313-26.773,30.401-43.737,41.488c-6.85-12.16-19.512-22.429-35.676-29.578   C319.741,391.161,311.178,388.381,301.936,386.579z"/>
  </symbol>

  <symbol id="ACCOUNTS" viewBox="0 0 544.202 544.202">
  	<path d="M80.338,427.004C32.209,397.653,0,344.649,0,284.259c0-92.122,74.95-167.072,167.072-167.072   c4.022,0,8.002,0.155,11.952,0.442c-58.332,32.71-97.863,95.124-97.863,166.631c0,41.267,13.187,79.491,35.533,110.745   C99.683,402.689,86.639,413.835,80.338,427.004z"/>
  	<path d="M301.936,386.579v-21.045c5.436-3.371,10.376-7.787,14.768-12.942   c12.077-14.183,19.691-34.375,19.691-56.912c0-14.583-3.222-28.182-8.724-39.847c-10.711-22.698-30.222-37.949-52.586-37.949   c-22.328,0-41.81,15.198-52.532,37.83c-5.537,11.689-8.777,25.329-8.777,39.966c0,14.595,3.252,28.17,8.771,39.817   c6.098,12.882,14.983,23.402,25.687,30.037v21.051c-9.29,1.808-17.877,4.612-25.723,8.079   c-17.399,7.685-30.747,18.981-37.144,32.352c-17.197-10.49-32.311-24.035-44.698-39.817c-22.286-28.408-35.64-64.126-35.64-102.94   c0-73.756,48.057-136.456,114.486-158.546c12.936-4.302,26.564-7.053,40.676-8.055c3.938-0.28,7.9-0.471,11.91-0.471   s7.972,0.191,11.91,0.471c14.112,1.002,27.74,3.753,40.676,8.055c63.195,21.015,109.725,78.787,114.11,147.859   c0.221,3.538,0.376,7.095,0.376,10.687c0,24.345-5.305,47.455-14.708,68.327c-4.809,10.669-10.657,20.777-17.501,30.121   c-11.952,16.313-26.773,30.401-43.737,41.488c-6.85-12.16-19.512-22.429-35.676-29.578   C319.741,391.161,311.178,388.381,301.936,386.579z"/>
  	<path d="M468.25,424.194c-7.369-13.091-21.427-24.023-39.399-31.177   c8.688-12.477,15.89-26.033,21.433-40.426c0.65-1.689,1.343-3.353,1.951-5.066c6.981-19.81,10.806-41.094,10.806-63.267   c0-71.507-39.536-133.92-97.869-166.631c3.95-0.28,7.936-0.442,11.958-0.442c92.123,0,167.072,74.95,167.072,167.072   C544.202,342.788,513.932,394.341,468.25,424.194z"/>
  </symbol>
</svg>
